<svg width="44" height="35" viewBox="0 0 44 35" fill="none" xmlns="http://www.w3.org/2000/svg">
<path d="M34.5237 2.16409C34.5516 0.843911 34.5014 0.0097481 34.5014 0.0097481L21.6005 0H21.535H21.4696L8.56722 0.0097481C8.56722 0.0097481 8.51848 0.843911 8.54633 2.16409H0V3.57339C0 3.89508 0.0543111 11.4833 4.7376 15.6402C6.6914 17.374 9.12844 18.2457 12.0014 18.2471C12.4358 18.2471 12.8829 18.2179 13.3355 18.1789C14.9676 20.414 16.8531 21.9793 18.9741 22.7591V28.9492H12.7478V32.8262H10.6909V35H21.4696H21.6005H32.3791V32.8276H30.3209V28.9506H24.0946V22.7605C26.2141 21.9807 28.1011 20.4154 29.7332 18.1803C30.1886 18.2193 30.6356 18.2471 31.0701 18.2471C33.9416 18.2443 36.3787 17.374 38.3325 15.6388C43.0158 11.4819 43.0701 3.89369 43.0701 3.572V2.16409H34.5237ZM6.61759 13.5388C3.94243 11.1714 3.15143 7.11893 2.91748 4.98269H8.70787C8.95297 7.64393 9.5295 10.9597 10.8594 13.8744C11.1031 14.4091 11.3594 14.916 11.6212 15.4118C9.62559 15.3352 7.94613 14.7127 6.61759 13.5388ZM36.4525 13.5388C35.1253 14.7141 33.4445 15.3352 31.4503 15.4118C31.7121 14.9174 31.9683 14.4091 32.212 13.8744C33.542 10.9597 34.1185 7.64393 34.3622 4.98269H40.1526C39.9186 7.11753 39.129 11.17 36.4525 13.5388Z" fill="black"/>
</svg>
