<svg width="41" height="41" viewBox="0 0 41 41" fill="none" xmlns="http://www.w3.org/2000/svg">
<path d="M24.2025 14.6428H16.8811V16.1071H24.2025V14.6428Z" fill="black"/>
<path d="M16.1489 24.8928H24.9346V26.3571H16.1489V24.8928Z" fill="black"/>
<path d="M15.417 13.1785C16.2106 13.1785 16.8813 12.1725 16.8813 10.9821C16.8813 9.79163 16.2106 8.78564 15.417 8.78564H14.6655C15.6669 10.0787 15.6669 11.8855 14.6655 13.1785H15.417Z" fill="black"/>
<path d="M24.2026 20.4999V17.5713H23.266L22.29 20.4999H24.2026Z" fill="black"/>
<path d="M31.5241 10.9821C31.5202 10.0547 30.9342 9.22964 30.0598 8.92041V13.0444C30.369 12.9361 30.6511 12.7613 30.8856 12.5321C31.2942 12.1196 31.5237 11.5626 31.5241 10.9821Z" fill="black"/>
<path d="M29.3276 18.3034C29.3276 18.7078 28.9997 19.0356 28.5954 19.0356C28.1911 19.0356 27.8633 18.7078 27.8633 18.3034C27.8633 17.8991 28.1911 17.5713 28.5954 17.5713C28.9997 17.5713 29.3276 17.8991 29.3276 18.3034Z" fill="black"/>
<path d="M24.2024 8.78564H17.7446C18.5451 10.1405 18.5451 11.8236 17.7446 13.1785H24.2024V8.78564Z" fill="black"/>
<path d="M25.6667 16.8393V20.5H28.5953C27.382 20.5 26.3989 19.5166 26.3989 18.3036C26.3989 17.0906 27.382 16.1072 28.5953 16.1072V5.85718H25.6667V16.8393Z" fill="black"/>
<path d="M27.131 23.4286V21.9644H13.9524V23.4286H27.131Z" fill="black"/>
<path d="M11.3071 20.4999H20.746L21.7226 17.5713H12.2838L11.3071 20.4999Z" fill="black"/>
<path d="M28.5954 27.8213H12.4883V29.2856H28.5954V27.8213Z" fill="black"/>
<path d="M8.41968 41H11.2485L15.0923 30.75H12.2634L8.41968 41Z" fill="black"/>
<path d="M19.0774 30.75H22.006V41H19.0774V30.75Z" fill="black"/>
<path d="M28.82 30.75H25.9912L29.835 41H32.6638L28.82 30.75Z" fill="black"/>
<path d="M14.6845 2.19643C14.6845 1.79211 15.0123 1.46429 15.4166 1.46429H25.6666C26.071 1.46429 26.3988 1.79211 26.3988 2.19643V4.39286H27.8631V0.732143C27.8631 0.32782 27.5353 0 27.1309 0H13.9524C13.548 0 13.2202 0.32782 13.2202 0.732143V4.39286H14.6845V2.19643Z" fill="black"/>
<path d="M24.2025 5.12514C24.2025 4.72082 24.5303 4.393 24.9346 4.393V2.92871H16.1489V4.393C16.5532 4.393 16.8811 4.72082 16.8811 5.12514V7.32157H24.2025V5.12514Z" fill="black"/>
<path d="M13.9527 10.9821C13.9527 12.195 12.9692 13.1785 11.7562 13.1785C10.5429 13.1785 9.55981 12.195 9.55981 10.9821C9.55981 9.7691 10.5429 8.78564 11.7562 8.78564C12.9692 8.78564 13.9527 9.7691 13.9527 10.9821Z" fill="black"/>
<path d="M12.4883 14.6428H15.4169V16.1071H12.4883V14.6428Z" fill="black"/>
<path d="M12.4883 5.85718H15.4169V7.32146H12.4883V5.85718Z" fill="black"/>
</svg>
