<svg width="35" height="35" viewBox="0 0 35 35" fill="none" xmlns="http://www.w3.org/2000/svg">
<path d="M19.5588 29.2246V34.9325L22.6471 32.1874L25.7353 34.9325V29.2246C24.7988 29.6707 23.7516 29.9208 22.6471 29.9208C21.5425 29.9208 20.4954 29.6707 19.5588 29.2246Z" fill="black"/>
<path d="M22.6471 27.862C25.4897 27.862 27.7941 25.5576 27.7941 22.7149C27.7941 19.8723 25.4897 17.5679 22.6471 17.5679C19.8044 17.5679 17.5 19.8723 17.5 22.7149C17.5 25.5576 19.8044 27.862 22.6471 27.862Z" fill="black"/>
<path d="M0 0.0678711V26.8326H16.7371C15.9207 25.6645 15.4412 24.2448 15.4412 22.7149C15.4412 18.7416 18.6737 15.509 22.6471 15.509C26.6204 15.509 29.8529 18.7416 29.8529 22.7149C29.8529 24.2448 29.3734 25.6645 28.5571 26.8326H35V0.0678711H0ZM12.3529 22.7149H6.17647V20.6561H12.3529V22.7149ZM13.3824 18.5973H6.17647V16.5385H13.3824V18.5973ZM16.4706 14.4796H6.17647V12.4208H16.4706V14.4796ZM28.8235 10.362H6.17647V8.30317H28.8235V10.362ZM28.8235 6.24434H6.17647V4.18552H28.8235V6.24434Z" fill="black"/>
</svg>
