<svg width="44" height="44" viewBox="0 0 44 44" fill="none" xmlns="http://www.w3.org/2000/svg">
<path d="M28.9329 29.4548C29.0349 28.3824 29.0041 27.3139 28.849 26.2707L31.2605 25.1959C31.0327 24.0278 30.6744 22.8754 30.1777 21.7603C29.6811 20.6459 29.0642 19.6091 28.3492 18.6577L25.9362 19.7317C25.2648 18.9194 24.4913 18.1823 23.6261 17.5401L24.572 15.0758C23.5841 14.4114 22.5164 13.8499 21.3768 13.4125C20.2419 12.9767 19.0761 12.6754 17.8906 12.5085L16.9439 14.9753C15.8714 14.8733 14.803 14.9041 13.7598 15.0591L12.6913 12.6596C10.3044 13.1286 8.07413 14.1409 6.1594 15.5875L7.22076 17.9712C6.40695 18.6426 5.66984 19.4169 5.02764 20.2813L2.56958 19.3386C1.89891 20.3241 1.33659 21.3925 0.898443 22.5314C0.464248 23.6703 0.166876 24.8392 0 26.0168L2.46439 26.9627C2.36237 28.0352 2.39321 29.1037 2.54823 30.1468L0.136823 31.2208C0.364597 32.3898 0.722867 33.5413 1.21954 34.6564C1.71701 35.7716 2.33311 36.8076 3.04885 37.7591L5.46026 36.6851C6.13172 37.4981 6.9052 38.2352 7.77122 38.8774L6.82532 41.3434C7.81314 42.0085 8.88083 42.5692 10.0205 43.0066C11.1554 43.4424 12.3212 43.7437 13.5067 43.9106L14.4534 41.4438C15.5258 41.545 16.5943 41.5142 17.6375 41.3592L18.706 43.7579C21.0929 43.2889 23.3247 42.2766 25.2387 40.8301L24.1765 38.4464C24.9895 37.7749 25.7274 37.0014 26.3696 36.1362L28.8261 37.0789C29.4968 36.0935 30.0591 35.025 30.4972 33.8869C30.9346 32.748 31.2312 31.5783 31.3981 30.3999L28.9329 29.4548ZM22.382 30.7732C20.9655 34.465 16.8253 36.3078 13.1326 34.8913C9.44473 33.4757 7.5996 29.3362 9.01528 25.6451C10.4318 21.9541 14.572 20.1113 18.2623 21.5262C21.9533 22.9419 23.7977 27.0829 22.382 30.7732Z" fill="black"/>
<path d="M42.2845 9.80293C42.2845 9.32523 42.2354 8.85782 42.1516 8.40385L43.9999 7.33616C43.5523 5.63418 42.6633 4.11015 41.4477 2.90642L39.5947 3.97649C38.8876 3.37067 38.0683 2.89614 37.1722 2.57979V0.442031C36.356 0.218211 35.5011 0.0900879 34.6161 0.0900879C33.7311 0.0900879 32.8769 0.219793 32.0599 0.442031V2.58058C31.1639 2.89693 30.3453 3.37225 29.6375 3.97728L27.7836 2.90721C26.5696 4.11094 25.6799 5.63497 25.2314 7.33695L27.0805 8.40464C26.9967 8.8594 26.9469 9.32523 26.9469 9.80372C26.9469 10.2822 26.9967 10.7488 27.0805 11.2028L25.2314 12.2705C25.6799 13.9725 26.5696 15.4973 27.7836 16.7002L29.6367 15.6302C30.3445 16.236 31.1631 16.7105 32.0591 17.0269V19.1654C32.8761 19.3884 33.7303 19.5173 34.6153 19.5173C35.5003 19.5173 36.356 19.3876 37.1714 19.1654V17.0269C38.0675 16.7105 38.8868 16.2352 39.5939 15.6302L41.4469 16.7002C42.6625 15.4965 43.5515 13.9725 43.9991 12.2705L42.1508 11.2028C42.2354 10.7472 42.2845 10.2814 42.2845 9.80293ZM34.6169 13.3825C32.6396 13.3825 31.0365 11.7801 31.0365 9.80372C31.0365 7.8273 32.6396 6.22418 34.6169 6.22418C36.5917 6.22418 38.1948 7.82651 38.1948 9.80293C38.1948 11.7793 36.5917 13.3825 34.6169 13.3825Z" fill="black"/>
</svg>
