<svg width="46" height="46" viewBox="0 0 46 46" fill="none" xmlns="http://www.w3.org/2000/svg">
<path d="M36.4226 6.98514L34.1172 9.24786C34.1172 9.24786 33.3455 9.07393 32.8095 8.81303L29.1972 7.0555C28.7584 6.84204 28.2176 6.73926 27.6666 6.73926C26.8736 6.73926 26.0569 6.95272 25.4845 7.35751L19.8973 11.2758C18.9264 11.9628 18.7114 13.3061 19.4198 14.2619L19.751 14.7094C20.2056 15.3213 20.9488 15.6557 21.692 15.6557C22.1102 15.6557 22.5276 15.5506 22.8945 15.3292L25.5454 13.6373C26.0142 13.3551 26.6095 13.2159 27.2112 13.2159C27.9172 13.2159 28.6311 13.408 29.1537 13.7836L33.0016 17.3089C33.9677 18.0039 35.4699 19.2364 36.3427 20.0452L39.8372 23.293L46 16.1522L36.4226 6.98514Z" fill="black"/>
<path d="M38.7612 25.9122L32.9131 20.4768C32.4047 20.0641 31.2717 19.1968 31.2717 19.1968L27.6065 15.8398C27.529 15.8106 27.3867 15.7766 27.2112 15.7766C27.0285 15.7766 26.9076 15.8137 26.8768 15.8272L24.2187 17.5215C23.4645 17.9769 22.5909 18.2164 21.6935 18.2164C20.1115 18.2164 18.6165 17.4756 17.6946 16.2328L17.3641 15.7877C16.6067 14.7662 16.3 13.5147 16.5008 12.2623C16.7008 11.0108 17.3831 9.9166 18.4283 9.17817L19.03 8.75677C18.1619 8.65083 17.1989 8.74333 16.4945 9.04455C16.4945 9.04455 15.3141 9.56319 14.9354 9.72369C14.0578 10.0961 12.8276 10.0905 12.8276 10.0905L9.94033 7.40088L0 17.2748L3.738 21.0341L4.58711 20.1447C5.4726 19.2157 6.71939 18.6821 8.00729 18.6821C9.22878 18.6821 10.387 19.1454 11.2685 19.9858L11.671 20.3692C12.1888 20.8634 12.5707 21.4453 12.815 22.073C13.5874 22.2714 14.299 22.6636 14.8903 23.2273L15.2904 23.6099C16.2027 24.478 16.723 25.6513 16.7538 26.9147C17.0305 27.0855 17.293 27.2871 17.5325 27.5163L17.9373 27.9022C18.5042 28.4429 18.9074 29.0912 19.1446 29.7862C19.8609 29.9949 20.521 30.372 21.0713 30.8962L21.4808 31.2852C23.1269 32.8553 23.3886 35.3386 22.2343 37.1989L22.5411 37.4851C23.4123 38.2955 24.788 38.2457 25.5983 37.3744L25.977 36.9657C26.77 36.1118 26.7305 34.7805 25.9083 33.9669L28.7125 36.568C29.5854 37.3768 30.961 37.3262 31.7714 36.4534L32.1501 36.0462C32.955 35.1797 32.9075 33.8159 32.0505 33.004L32.7715 33.6744C33.6436 34.484 35.0184 34.4326 35.828 33.5613L36.2075 33.1534C37.0171 32.2806 36.9657 30.9049 36.0945 30.0945L35.4857 29.53C36.3609 30.2938 37.6986 30.2352 38.4932 29.379L38.8742 28.9703C39.6838 28.0967 39.634 26.721 38.7612 25.9122Z" fill="black"/>
<path d="M19.7122 33.1383L19.3074 32.7532C18.89 32.3555 18.3523 32.1579 17.8147 32.1579C17.2439 32.1579 16.6731 32.3816 16.2493 32.826L16.2422 32.8141C17.0621 31.9531 17.0297 30.5767 16.1687 29.756L15.7647 29.371C15.3488 28.9757 14.8167 28.7796 14.2823 28.7796C13.7423 28.7796 13.2039 28.9796 12.7865 29.3742L13.5968 28.525C14.4183 27.6641 14.3867 26.2868 13.5241 25.4662L13.1209 25.0812C12.705 24.6843 12.169 24.4882 11.6338 24.4882C11.078 24.4882 10.5237 24.6993 10.1031 25.1175C10.7791 24.2542 10.7119 22.9971 9.90232 22.2247L9.4999 21.8404C9.08246 21.4428 8.54326 21.2451 8.00644 21.2451C7.43404 21.2443 6.86401 21.4689 6.44024 21.9132L2.3773 26.173C1.55665 27.0332 1.58907 28.4104 2.45241 29.2303L2.85404 29.6145C3.26911 30.0098 3.80198 30.2035 4.33406 30.2035C4.82503 30.2035 5.31521 30.0383 5.71367 29.7125L4.64319 30.8336C3.82333 31.6954 3.85574 33.071 4.71592 33.8925L5.12151 34.2775C5.53895 34.6752 6.07735 34.8728 6.61339 34.8728C7.18579 34.8728 7.75582 34.6491 8.17958 34.2048L9.01526 33.328C8.27129 34.1921 8.3211 35.5053 9.15519 36.2999L9.56078 36.6849C9.97743 37.0818 10.5158 37.2795 11.0534 37.2795C11.6251 37.2795 12.1959 37.0557 12.6189 36.6114L13.9621 35.2215C13.1407 36.0833 13.1723 37.4589 14.0348 38.2804L14.4396 38.6654C14.8555 39.0631 15.3931 39.2607 15.9307 39.2607C16.5023 39.2607 17.0731 39.037 17.4961 38.5927L19.7849 36.194C20.6064 35.3354 20.5724 33.9597 19.7122 33.1383Z" fill="black"/>
</svg>
