<svg width="40" height="40" viewBox="0 0 40 40" fill="none" xmlns="http://www.w3.org/2000/svg">
<path d="M35.3089 24.9636L40 19.9877L35.3028 15.018L36.1724 8.23544L29.4511 6.97463L26.167 0.977539L19.9893 3.90642L13.8085 0.985194L10.5328 6.98535L3.81229 8.25535L4.69035 15.0371L0 20.0115L4.69647 24.982L3.82531 31.7645L10.5473 33.0253L13.8307 39.0224L20.0084 36.0928L26.19 39.0147L29.4664 33.0131L36.1862 31.7438L36.0958 31.0495L35.3089 24.9636ZM20 33.1141C12.7559 33.1141 6.88586 27.2426 6.88586 20C6.88586 12.7574 12.7559 6.88583 20 6.88583C27.2449 6.88583 33.1141 12.7574 33.1141 20C33.1141 27.2426 27.2441 33.1141 20 33.1141Z" fill="black"/>
<path d="M20.0001 9.36011C14.1339 9.36011 9.36011 14.1331 9.36011 20.0001C9.36011 25.867 14.1339 30.6401 20.0001 30.6401C25.8663 30.6401 30.6401 25.8678 30.6401 20.0001C30.6401 14.1324 25.8663 9.36011 20.0001 9.36011ZM19.7873 24.9293L14.891 20.846L13.9418 20.0537L15.5256 18.1536L19.4474 21.4232L25.0158 14.5779L26.9357 16.1388L19.7873 24.9293Z" fill="black"/>
</svg>
