<svg width="40" height="40" viewBox="0 0 40 40" fill="none" xmlns="http://www.w3.org/2000/svg">
<path d="M22.7463 23.8005C24.4925 24.5487 25.7775 26.2078 26.2717 28.3523C26.9068 31.1082 26.1843 34.23 24.3323 36.9617C26.9324 36.3017 29.3439 35.0475 31.3771 33.2976C30.1917 31.0837 30.1775 28.9968 31.29 26.0302C31.829 24.5927 31.858 23.3739 31.3759 22.4074C30.7879 21.2286 29.5833 20.7347 29.2743 20.6246H18.5068C19.0405 21.4321 20.2271 22.7208 22.7463 23.8005Z" fill="url(#paint0_linear)"/>
<path d="M19.4013 19.375L16.0497 14.7427C15.9637 14.6285 15.8524 14.5358 15.7245 14.472C15.5966 14.4082 15.4556 14.375 15.3126 14.375C15.1697 14.375 15.0287 14.4082 14.9007 14.472C14.7728 14.5358 14.6615 14.6285 14.5755 14.7427L11.2236 19.375H19.4013Z" fill="url(#paint1_linear)"/>
<path d="M12.8867 14.9439L10.872 12.2835C10.7655 12.1557 10.6322 12.0528 10.4815 11.9822C10.3308 11.9116 10.1664 11.875 9.99998 11.875C9.83357 11.875 9.66919 11.9116 9.51849 11.9822C9.3678 12.0528 9.23447 12.1557 9.12795 12.2835L3.75732 19.375H9.68076L12.8867 14.9439Z" fill="url(#paint2_linear)"/>
<path d="M23.75 14.7613L22.8455 14.309C22.6985 14.2341 22.5872 14.1041 22.5357 13.9475C22.4841 13.7908 22.4966 13.6201 22.5704 13.4726C22.6441 13.3251 22.7732 13.2128 22.9294 13.16C23.0857 13.1073 23.2565 13.1184 23.4045 13.191L23.75 13.3638V12.5C23.75 12.3342 23.8158 12.1753 23.9331 12.0581C24.0503 11.9408 24.2092 11.875 24.375 11.875C24.5408 11.875 24.6997 11.9408 24.8169 12.0581C24.9342 12.1753 25 12.3342 25 12.5V15.3871C25.3263 15.5458 25.6848 15.6272 26.0477 15.625C26.3982 15.6258 26.7446 15.5499 27.0627 15.4024C26.5504 14.8098 26.2628 14.0559 26.2504 13.2727C26.238 12.4895 26.5015 11.7269 26.9948 11.1184C26.7424 10.6942 26.6013 10.2132 26.5844 9.71992C26.508 9.68254 26.4401 9.62993 26.3848 9.56533C26.3295 9.50074 26.288 9.42552 26.2628 9.3443C26.0417 8.62633 25.2656 8.125 24.375 8.125C23.4844 8.125 22.7083 8.62633 22.4872 9.34375C22.4561 9.4448 22.3998 9.53631 22.3237 9.60971C22.2476 9.68311 22.1541 9.736 22.052 9.76344C21.3523 9.95141 20.882 10.4843 20.882 11.0895C20.8853 11.3851 20.9953 11.6696 21.1916 11.8906C21.2958 12.0126 21.3491 12.1699 21.3405 12.3301C21.3319 12.4903 21.262 12.641 21.1454 12.7511C20.9848 12.8957 20.8557 13.0719 20.7661 13.2686C20.6766 13.4654 20.6286 13.6784 20.625 13.8945C20.625 14.8487 21.5569 15.625 22.7023 15.625C23.0652 15.6272 23.4237 15.5458 23.75 15.3871V14.7613Z" fill="url(#paint3_linear)"/>
<path d="M30.3493 15.625C30.8813 15.6284 31.4057 15.4989 31.875 15.2484V14.0844L30.2783 13.0199C30.2095 12.9746 30.1504 12.9161 30.1043 12.8479C30.0582 12.7796 30.026 12.703 30.0097 12.6222C29.9933 12.5415 29.9931 12.4584 30.009 12.3776C30.0248 12.2967 30.0565 12.2199 30.1022 12.1514C30.1479 12.0828 30.2067 12.024 30.2752 11.9783C30.3437 11.9325 30.4205 11.9008 30.5013 11.8849C30.5821 11.8689 30.6653 11.8691 30.746 11.8855C30.8267 11.9018 30.9034 11.9339 30.9717 11.9799L31.875 12.5822V11.25C31.875 11.0842 31.9408 10.9253 32.0581 10.8081C32.1753 10.6908 32.3342 10.625 32.5 10.625C32.6658 10.625 32.8247 10.6908 32.9419 10.8081C33.0592 10.9253 33.125 11.0842 33.125 11.25V12.5822L34.0283 11.98C34.1662 11.8891 34.3345 11.8565 34.4964 11.8893C34.6583 11.9221 34.8006 12.0177 34.8922 12.1551C34.9839 12.2926 35.0174 12.4607 34.9854 12.6227C34.9535 12.7848 34.8587 12.9276 34.7217 13.02L33.125 14.0845V15.2485C33.5943 15.499 34.1187 15.6284 34.6507 15.625C36.2219 15.625 37.5 14.5469 37.5 13.2212C37.4954 12.919 37.4287 12.621 37.3039 12.3458C37.1791 12.0706 36.9991 11.8239 36.7748 11.6213C36.6582 11.5112 36.5884 11.3604 36.5799 11.2001C36.5713 11.0399 36.6248 10.8825 36.7291 10.7606C37.0091 10.4445 37.1655 10.0377 37.1691 9.61539C37.1691 8.75602 36.5116 8.00117 35.533 7.73773C35.431 7.71028 35.3376 7.65742 35.2616 7.58408C35.1855 7.51074 35.1293 7.41932 35.0982 7.31836C34.7909 6.32133 33.7224 5.625 32.5 5.625C31.2776 5.625 30.2091 6.32133 29.9018 7.31836C29.8707 7.41932 29.8145 7.51074 29.7384 7.58408C29.6624 7.65742 29.569 7.71028 29.467 7.73773C28.4884 8.00117 27.8309 8.7557 27.8309 9.61539C27.8345 10.0377 27.9909 10.4445 28.2709 10.7606C28.3752 10.8825 28.4287 11.0399 28.4201 11.2001C28.4116 11.3604 28.3418 11.5112 28.2252 11.6213C28.0009 11.8239 27.8209 12.0706 27.6961 12.3458C27.5713 12.621 27.5046 12.919 27.5 13.2212C27.5 14.5469 28.7781 15.625 30.3493 15.625Z" fill="url(#paint4_linear)"/>
<path d="M20 37.5C20.8351 37.5 21.669 37.441 22.4958 37.3236C24.7374 34.6422 25.6933 31.4091 25.0536 28.633C24.65 26.8815 23.6295 25.5393 22.254 24.9495C18.7374 23.4424 17.483 21.5078 17.0734 20.625H2.51099C2.67288 25.1552 4.58636 29.4459 7.84852 32.5935C11.1107 35.7411 15.4669 37.5001 20 37.5Z" fill="url(#paint5_linear)"/>
<path d="M32.4864 21.8337C33.1378 23.1262 33.129 24.6859 32.4601 26.4695C31.6406 28.6562 31.3549 30.3852 32.3318 32.4159C32.3459 32.4019 32.3603 32.3884 32.3743 32.3744C35.5139 29.2526 37.3434 25.0501 37.489 20.625H31.5906C31.9549 20.9748 32.2578 21.3834 32.4864 21.8337Z" fill="url(#paint6_linear)"/>
<path d="M3.75 6.87499C3.97148 6.8754 4.18899 6.81625 4.37977 6.70374C4.49787 6.63374 4.63574 6.60459 4.77208 6.62077C4.90841 6.63695 5.03562 6.69757 5.13406 6.79327C5.60027 7.24646 6.22482 7.5 6.875 7.5C7.52518 7.5 8.14973 7.24646 8.61594 6.79327C8.71438 6.69757 8.84159 6.63695 8.97792 6.62077C9.11426 6.60459 9.25213 6.63374 9.37023 6.70374C9.56101 6.81625 9.77852 6.8754 10 6.87499C10.3315 6.87499 10.6495 6.74329 10.8839 6.50887C11.1183 6.27445 11.25 5.95651 11.25 5.62499C11.25 5.29347 11.1183 4.97553 10.8839 4.74111C10.6495 4.50669 10.3315 4.37499 10 4.37499C9.94458 4.37478 9.88921 4.37846 9.8343 4.38601C9.69844 4.4052 9.56004 4.37916 9.44045 4.3119C9.32086 4.24464 9.22673 4.13989 9.17258 4.01382C8.97961 3.56445 8.6591 3.18154 8.25073 2.91248C7.84236 2.64341 7.36405 2.5 6.875 2.5C6.38595 2.5 5.90764 2.64341 5.49927 2.91248C5.0909 3.18154 4.77039 3.56445 4.57742 4.01382C4.52327 4.13989 4.42914 4.24464 4.30955 4.3119C4.18996 4.37916 4.05156 4.4052 3.9157 4.38601C3.86079 4.37846 3.80542 4.37478 3.75 4.37499C3.41848 4.37499 3.10054 4.50669 2.86612 4.74111C2.6317 4.97553 2.5 5.29347 2.5 5.62499C2.5 5.95651 2.6317 6.27445 2.86612 6.50887C3.10054 6.74329 3.41848 6.87499 3.75 6.87499Z" fill="url(#paint7_linear)"/>
<path d="M20 5C19.8342 5 19.6753 4.93415 19.5581 4.81694C19.4408 4.69973 19.375 4.54076 19.375 4.375C19.3664 4.24637 19.3315 4.12087 19.2725 4.00625C19.2031 3.87953 19.0859 3.75 18.75 3.75C18.5842 3.75 18.4253 3.68415 18.3081 3.56694C18.1908 3.44973 18.125 3.29076 18.125 3.125C18.125 2.95924 18.1908 2.80027 18.3081 2.68306C18.4253 2.56585 18.5842 2.5 18.75 2.5C19.2977 2.5 19.7063 2.67766 20 2.93914C20.2937 2.67766 20.7023 2.5 21.25 2.5C21.4158 2.5 21.5747 2.56585 21.6919 2.68306C21.8092 2.80027 21.875 2.95924 21.875 3.125C21.875 3.29076 21.8092 3.44973 21.6919 3.56694C21.5747 3.68415 21.4158 3.75 21.25 3.75C20.9141 3.75 20.7969 3.87953 20.7275 4.00625C20.6676 4.12274 20.6327 4.25047 20.625 4.38125C20.6234 4.54592 20.5568 4.70329 20.4397 4.81916C20.3227 4.93502 20.1647 5.00001 20 5Z" fill="url(#paint8_linear)"/>
<path d="M15.625 10C15.4592 10 15.3003 9.93415 15.1831 9.81694C15.0658 9.69973 15 9.54076 15 9.375C14.9914 9.24637 14.9565 9.12087 14.8975 9.00625C14.8281 8.87953 14.7109 8.75 14.375 8.75C14.2092 8.75 14.0503 8.68415 13.9331 8.56694C13.8158 8.44973 13.75 8.29076 13.75 8.125C13.75 7.95924 13.8158 7.80027 13.9331 7.68306C14.0503 7.56585 14.2092 7.5 14.375 7.5C14.9227 7.5 15.3313 7.67766 15.625 7.93914C15.9187 7.67766 16.3273 7.5 16.875 7.5C17.0408 7.5 17.1997 7.56585 17.3169 7.68306C17.4342 7.80027 17.5 7.95924 17.5 8.125C17.5 8.29076 17.4342 8.44973 17.3169 8.56694C17.1997 8.68415 17.0408 8.75 16.875 8.75C16.5391 8.75 16.4223 8.87953 16.3525 9.00625C16.2926 9.12274 16.2577 9.25047 16.25 9.38125C16.2484 9.54592 16.1818 9.7033 16.0647 9.81916C15.9477 9.93502 15.7897 10 15.625 10Z" fill="url(#paint9_linear)"/>
<path d="M25 19.3749V16.7245C24.784 16.6609 24.5747 16.5766 24.375 16.4727C24.1753 16.5766 23.966 16.6609 23.75 16.7245V19.3749H25Z" fill="url(#paint10_linear)"/>
<path d="M32.5 16.3339C32.2995 16.4434 32.0905 16.5368 31.875 16.6129V19.375H33.125V16.6129C32.9095 16.5368 32.7005 16.4434 32.5 16.3339Z" fill="url(#paint11_linear)"/>
<defs>
<linearGradient id="paint0_linear" x1="25.112" y1="20.6246" x2="25.112" y2="36.9617" gradientUnits="userSpaceOnUse">
<stop stop-color="#059347"/>
<stop offset="1" stop-color="#24B969"/>
</linearGradient>
<linearGradient id="paint1_linear" x1="15.3125" y1="14.375" x2="15.3125" y2="19.375" gradientUnits="userSpaceOnUse">
<stop stop-color="#059347"/>
<stop offset="1" stop-color="#24B969"/>
</linearGradient>
<linearGradient id="paint2_linear" x1="8.32201" y1="11.875" x2="8.32201" y2="19.375" gradientUnits="userSpaceOnUse">
<stop stop-color="#059347"/>
<stop offset="1" stop-color="#24B969"/>
</linearGradient>
<linearGradient id="paint3_linear" x1="23.8438" y1="8.125" x2="23.8438" y2="15.625" gradientUnits="userSpaceOnUse">
<stop stop-color="#059347"/>
<stop offset="1" stop-color="#24B969"/>
</linearGradient>
<linearGradient id="paint4_linear" x1="32.5" y1="5.625" x2="32.5" y2="15.6251" gradientUnits="userSpaceOnUse">
<stop stop-color="#059347"/>
<stop offset="1" stop-color="#24B969"/>
</linearGradient>
<linearGradient id="paint5_linear" x1="13.8798" y1="20.625" x2="13.8798" y2="37.5" gradientUnits="userSpaceOnUse">
<stop stop-color="#059347"/>
<stop offset="1" stop-color="#24B969"/>
</linearGradient>
<linearGradient id="paint6_linear" x1="34.5398" y1="20.625" x2="34.5398" y2="32.4159" gradientUnits="userSpaceOnUse">
<stop stop-color="#059347"/>
<stop offset="1" stop-color="#24B969"/>
</linearGradient>
<linearGradient id="paint7_linear" x1="6.875" y1="2.5" x2="6.875" y2="7.5" gradientUnits="userSpaceOnUse">
<stop stop-color="#059347"/>
<stop offset="1" stop-color="#24B969"/>
</linearGradient>
<linearGradient id="paint8_linear" x1="20" y1="2.5" x2="20" y2="5" gradientUnits="userSpaceOnUse">
<stop stop-color="#059347"/>
<stop offset="1" stop-color="#24B969"/>
</linearGradient>
<linearGradient id="paint9_linear" x1="15.625" y1="7.5" x2="15.625" y2="10" gradientUnits="userSpaceOnUse">
<stop stop-color="#059347"/>
<stop offset="1" stop-color="#24B969"/>
</linearGradient>
<linearGradient id="paint10_linear" x1="24.375" y1="16.4727" x2="24.375" y2="19.3749" gradientUnits="userSpaceOnUse">
<stop stop-color="#059347"/>
<stop offset="1" stop-color="#24B969"/>
</linearGradient>
<linearGradient id="paint11_linear" x1="32.5" y1="16.3339" x2="32.5" y2="19.375" gradientUnits="userSpaceOnUse">
<stop stop-color="#059347"/>
<stop offset="1" stop-color="#24B969"/>
</linearGradient>
</defs>
</svg>
