<svg width="46" height="46" viewBox="0 0 46 46" fill="none" xmlns="http://www.w3.org/2000/svg">
<g clip-path="url(#clip0)">
<path d="M40.5317 11.705L40.4879 11.7801C38.9235 14.4616 35.0492 14.4623 33.484 11.7812L33.4517 11.7261C31.8914 9.05295 27.9899 9.06058 26.4401 11.7398C24.8902 14.4194 20.9879 14.4265 19.4281 11.7527L19.4003 11.705C17.8363 9.02249 13.9608 9.02213 12.3962 11.7041L12.3518 11.7802C10.7874 14.4619 6.91276 14.4623 5.34777 11.7809L5.30078 11.7004C4.52228 10.3666 3.16034 9.69991 1.79849 9.70009C1.35673 9.70018 0.915328 9.77116 0.493691 9.91194C0.199184 10.0103 0 10.2857 0 10.5963V17.0219C0.499441 16.8774 1.02548 16.8012 1.56705 16.8012H1.56768C3.56545 16.8012 5.35532 17.8278 6.35609 19.548L6.40361 19.6297C6.87996 20.4485 7.73483 20.9373 8.68996 20.9371C9.64536 20.937 10.4999 20.448 10.9762 19.6289L11.0206 19.5525C12.0209 17.8321 13.8112 16.8048 15.8094 16.8048C17.8078 16.8048 19.598 17.832 20.5986 19.5527L20.6267 19.601C21.1032 20.4205 21.9575 20.9093 22.9129 20.9093H22.9182C23.8756 20.9075 24.7303 20.4153 25.2045 19.5927C26.2007 17.8649 27.9906 16.831 29.9929 16.827H30.0044C32.0021 16.827 33.7911 17.8532 34.7923 19.5738L34.8242 19.6287C35.301 20.4484 36.1558 20.9372 37.111 20.937C38.0663 20.9369 38.9209 20.4479 39.3972 19.6288L39.4416 19.5524C40.4114 17.8846 42.1834 16.8886 44.1814 16.8886C44.8087 16.8886 45.4216 16.9888 46.0001 17.1761V10.7318C46.0001 10.435 45.8197 10.164 45.5415 10.0605C43.7542 9.39624 41.5781 9.9114 40.5317 11.705Z" fill="url(#paint0_linear)"/>
<path d="M41.944 21.0081L41.8996 21.0844C40.8993 22.8047 39.1093 23.8319 37.1113 23.8321H37.1107C35.1129 23.8323 33.323 22.8055 32.3224 21.0854L32.2903 21.0304C31.8134 20.2107 30.9592 19.7221 30.004 19.7221H29.9986C29.0412 19.724 28.1866 20.2162 27.7124 21.0387C26.7162 22.7667 24.9261 23.8005 22.9235 23.8043C22.9199 23.8043 22.9162 23.8043 22.9126 23.8043C20.9143 23.8044 19.125 22.7776 18.1241 21.0563L18.096 21.0081C17.6196 20.189 16.7648 19.6999 15.8094 19.6999C14.854 19.6999 13.9993 20.1889 13.5229 21.0081L13.4785 21.0844C12.4783 22.8047 10.6883 23.8319 8.69023 23.8321H8.68969C6.69192 23.8323 4.90205 22.8055 3.90138 21.0854L3.85376 21.0037C3.37741 20.1848 2.52254 19.696 1.56741 19.6962C0.986754 19.6962 0.443918 19.8778 0 20.2035V26.6201C0.499352 26.4757 1.02539 26.3994 1.56696 26.3993H1.56768C3.56536 26.3993 5.35541 27.426 6.356 29.146L6.40361 29.2279C6.87996 30.0466 7.73483 30.5354 8.69005 30.5354C9.64536 30.5352 10.4999 30.0462 10.9762 29.2271L11.0206 29.1508C12.0209 27.4304 13.8112 26.4031 15.8094 26.4031C17.8078 26.4031 19.598 27.4303 20.5986 29.151L20.6267 29.1993C21.1032 30.0188 21.9575 30.5075 22.9129 30.5075H22.9182C23.8756 30.5057 24.7303 30.0135 25.2045 29.1909C26.2007 27.4632 27.9906 26.4293 29.9929 26.4254H30.0044C32.002 26.4254 33.7911 27.4515 34.7923 29.1721L34.8242 29.227C35.301 30.0466 36.1558 30.5354 37.111 30.5354C38.0663 30.5352 38.9209 30.0462 39.3972 29.2271L39.4416 29.1508C40.4114 27.4828 42.1833 26.487 44.1814 26.487C44.8087 26.487 45.4216 26.5873 46.0001 26.7745V20.3984C45.4965 20.0081 44.8571 19.7838 44.1814 19.7838C43.7226 19.7838 42.5866 19.9031 41.944 21.0081Z" fill="url(#paint1_linear)"/>
<path d="M41.944 30.6061L41.8996 30.6824C40.8994 32.4026 39.1093 33.4299 37.1114 33.4301H37.1107C35.113 33.4301 33.323 32.4033 32.3224 30.6834L32.2903 30.6285C31.8134 29.8087 30.9592 29.3202 30.004 29.3202H29.9986C29.0412 29.322 28.1866 29.8142 27.7124 30.6367C26.7162 32.3647 24.9261 33.3985 22.9235 33.4022C22.9199 33.4023 22.9162 33.4023 22.9126 33.4023C20.9143 33.4023 19.125 32.3757 18.1241 30.6543L18.096 30.6061C17.6196 29.787 16.7648 29.2979 15.8094 29.2979C14.854 29.2979 13.9993 29.7869 13.5229 30.6061L13.4785 30.6824C12.4783 32.4026 10.6883 33.4299 8.69032 33.4301H8.68969C6.69201 33.4301 4.90196 32.4033 3.90138 30.6834L3.85376 30.6017C3.37741 29.7828 2.52254 29.2941 1.56732 29.2942C0.986664 29.2943 0.443828 29.4759 0 29.8015V34.4931C0 35.495 0.812187 36.3072 1.81412 36.3072H44.1858C45.1877 36.3072 45.9999 35.495 45.9999 34.4931V29.9965C45.4963 29.6062 44.8569 29.3819 44.1812 29.3819C43.7226 29.3818 42.5866 29.5011 41.944 30.6061Z" fill="url(#paint2_linear)"/>
</g>
<defs>
<linearGradient id="paint0_linear" x1="23" y1="9.69287" x2="23" y2="20.9371" gradientUnits="userSpaceOnUse">
<stop stop-color="#059347"/>
<stop offset="1" stop-color="#24B969"/>
</linearGradient>
<linearGradient id="paint1_linear" x1="23" y1="19.6962" x2="23" y2="30.5354" gradientUnits="userSpaceOnUse">
<stop stop-color="#059347"/>
<stop offset="1" stop-color="#24B969"/>
</linearGradient>
<linearGradient id="paint2_linear" x1="23" y1="29.2942" x2="23" y2="36.3072" gradientUnits="userSpaceOnUse">
<stop stop-color="#059347"/>
<stop offset="1" stop-color="#24B969"/>
</linearGradient>
<clipPath id="clip0">
<rect width="46" height="46" fill="white"/>
</clipPath>
</defs>
</svg>
