<svg width="37" height="37" viewBox="0 0 37 37" fill="none" xmlns="http://www.w3.org/2000/svg">
<g clip-path="url(#clip0)">
<path d="M36.4908 11.077L19.0748 0.164901C18.7234 -0.0552925 18.2766 -0.0552925 17.9252 0.164901L0.509184 11.077C0.19266 11.2749 0 11.6222 0 11.9959C0 12.3696 0.19266 12.7168 0.509184 12.9147L17.9252 23.7546C18.101 23.8646 18.301 23.9197 18.5 23.9197C18.699 23.9197 18.8991 23.8646 19.0748 23.7546L36.4908 12.9147C36.8073 12.7168 37 12.3696 37 11.9959C37 11.6222 36.8073 11.2749 36.4908 11.077Z" fill="url(#paint0_linear)"/>
<path d="M36.4908 17.5811L34.8029 16.5261L20.2233 25.5935C19.7078 25.9164 19.1108 26.0879 18.5 26.0879C17.8892 26.0879 17.2922 25.9164 16.7745 25.5925L2.1968 16.5264L0.509184 17.5811C0.19266 17.7791 0 18.1263 0 18.5C0 18.8737 0.19266 19.2209 0.509184 19.4188L17.9252 30.2587C18.101 30.3688 18.301 30.4238 18.5 30.4238C18.699 30.4238 18.8991 30.3688 19.0748 30.2587L36.4908 19.4188C36.8073 19.2209 37 18.8737 37 18.5C37 18.1263 36.8073 17.7791 36.4908 17.5811Z" fill="url(#paint1_linear)"/>
<path d="M36.4908 24.085L34.8029 23.03L20.2233 32.0974C19.7078 32.4203 19.1108 32.5918 18.5 32.5918C17.8892 32.5918 17.2922 32.4203 16.7745 32.0964L2.1968 23.0303L0.509184 24.085C0.19266 24.283 0 24.6302 0 25.0039C0 25.3776 0.19266 25.7248 0.509184 25.9228L17.9252 36.8349C18.101 36.9449 18.301 37 18.5 37C18.699 37 18.8991 36.9449 19.0748 36.8349L36.4908 25.9228C36.8073 25.7248 37 25.3776 37 25.0039C37 24.6302 36.8073 24.283 36.4908 24.085Z" fill="url(#paint2_linear)"/>
</g>
<defs>
<linearGradient id="paint0_linear" x1="18.5" y1="-0.000244141" x2="18.5" y2="23.9197" gradientUnits="userSpaceOnUse">
<stop stop-color="#059347"/>
<stop offset="1" stop-color="#24B969"/>
</linearGradient>
<linearGradient id="paint1_linear" x1="18.5" y1="16.5261" x2="18.5" y2="30.4238" gradientUnits="userSpaceOnUse">
<stop stop-color="#059347"/>
<stop offset="1" stop-color="#24B969"/>
</linearGradient>
<linearGradient id="paint2_linear" x1="18.5" y1="23.03" x2="18.5" y2="37" gradientUnits="userSpaceOnUse">
<stop stop-color="#059347"/>
<stop offset="1" stop-color="#24B969"/>
</linearGradient>
<clipPath id="clip0">
<rect width="37" height="37" fill="white"/>
</clipPath>
</defs>
</svg>
