<svg width="37" height="37" viewBox="0 0 37 37" fill="none" xmlns="http://www.w3.org/2000/svg">
<path d="M16.332 28.1836H20.668V37H16.332V28.1836Z" fill="url(#paint0_linear)"/>
<path d="M8.74585 37H14.1641V26.0156H22.836V37H28.28V0H8.74585V37ZM23.92 4.33594H26.0879V6.50391H23.92V4.33594ZM23.92 8.67188H26.0879V10.8398H23.92V8.67188ZM23.92 13.0078H26.0879V15.1758H23.92V13.0078ZM23.92 17.3438H26.0879V19.5117H23.92V17.3438ZM23.92 21.6797H26.0879V23.8477H23.92V21.6797ZM19.584 4.33594H21.752V6.50391H19.584V4.33594ZM19.584 8.67188H21.752V10.8398H19.584V8.67188ZM19.584 13.0078H21.752V15.1758H19.584V13.0078ZM19.584 17.3438H21.752V19.5117H19.584V17.3438ZM19.584 21.6797H21.752V23.8477H19.584V21.6797ZM15.2481 4.33594H17.4161V6.50391H15.2481V4.33594ZM15.2481 8.67188H17.4161V10.8398H15.2481V8.67188ZM15.2481 13.0078H17.4161V15.1758H15.2481V13.0078ZM15.2481 17.3438H17.4161V19.5117H15.2481V17.3438ZM15.2481 21.6797H17.4161V23.8477H15.2481V21.6797ZM10.9122 4.33594H13.0801V6.50391H10.9122V4.33594ZM10.9122 8.67188H13.0801V10.8398H10.9122V8.67188ZM10.9122 13.0078H13.0801V15.1758H10.9122V13.0078ZM10.9122 17.3438H13.0801V19.5117H10.9122V17.3438ZM10.9122 21.6797H13.0801V23.8477H10.9122V21.6797Z" fill="url(#paint1_linear)"/>
<path d="M30.3975 8.67188H36.9999V37H30.3975V8.67188Z" fill="url(#paint2_linear)"/>
<path d="M0 8.67188H6.57588V37H0V8.67188Z" fill="url(#paint3_linear)"/>
<defs>
<linearGradient id="paint0_linear" x1="18.5" y1="28.1836" x2="18.5" y2="37" gradientUnits="userSpaceOnUse">
<stop stop-color="#059347"/>
<stop offset="1" stop-color="#24B969"/>
</linearGradient>
<linearGradient id="paint1_linear" x1="18.5129" y1="0" x2="18.5129" y2="37" gradientUnits="userSpaceOnUse">
<stop stop-color="#059347"/>
<stop offset="1" stop-color="#24B969"/>
</linearGradient>
<linearGradient id="paint2_linear" x1="33.6987" y1="8.67187" x2="33.6987" y2="37" gradientUnits="userSpaceOnUse">
<stop stop-color="#059347"/>
<stop offset="1" stop-color="#24B969"/>
</linearGradient>
<linearGradient id="paint3_linear" x1="3.28794" y1="8.67187" x2="3.28794" y2="37" gradientUnits="userSpaceOnUse">
<stop stop-color="#059347"/>
<stop offset="1" stop-color="#24B969"/>
</linearGradient>
</defs>
</svg>
